<?xml version="1.0" encoding="UTF-8"?>
<svg id="_Слой_1" data-name="Слой 1" xmlns="http://www.w3.org/2000/svg" viewBox="0 0 72.231 72.23">
  <path d="m72.231,36.115c0,19.946-16.169,36.115-36.116,36.115S0,56.061,0,36.115,16.17,0,36.115,0s36.116,16.169,36.116,36.115" style="fill: #fff;"/>
  <path d="m72.231,36.115c0,19.946-16.169,36.115-36.116,36.115S0,56.061,0,36.115,16.17,0,36.115,0s36.116,16.169,36.116,36.115Z" style="fill: none; stroke: #034ea2; stroke-miterlimit: 10; stroke-width: .5px;"/>
  <text transform="translate(20.601 46.287)" style="fill: #b01016; font-family: OpenSans-Bold, &apos;Open Sans&apos;; font-size: 20.101px; font-weight: 700;"><tspan x="0" y="0">24/7</tspan></text>
  <path d="m36.299,63.488c-11.934,0-21.608-9.948-21.608-22.22s9.674-22.219,21.608-22.219c2.719,0,5.317.525,7.714,1.47l-1.535,4.289,18.17-4.275-10.902-16.033-1.608,4.49c-3.302-1.176-6.861-1.828-10.579-1.828-17.118,0-30.996,13.595-30.996,30.365s11.529,28.965,28.647,28.965c11.778,0,18.696-5.485,23.942-14.963h-.855c-3.495,7.434-13.432,11.959-21.998,11.959" style="fill: #034ea2;"/>
</svg>