<?xml version="1.0" encoding="UTF-8"?>
<svg id="_Слой_1" data-name="Слой 1" xmlns="http://www.w3.org/2000/svg" viewBox="0 0 72.731 72.73">
  <path d="m72.481,36.365c0,19.946-16.169,36.115-36.116,36.115S.25,56.311.25,36.365,16.42.25,36.365.25s36.116,16.169,36.116,36.115" style="fill: #fff;"/>
  <path d="m72.481,36.365c0,19.946-16.169,36.115-36.116,36.115S.25,56.311.25,36.365,16.42.25,36.365.25s36.116,16.169,36.116,36.115Z" style="fill: none; stroke: #034ea2; stroke-miterlimit: 10; stroke-width: .5px;"/>
  <path d="m48.537,22.61h-7.727l-.224-.603c-.181-.491-.275-1.001-.275-1.513,0-2.404,1.958-4.36,4.363-4.36s4.361,1.956,4.361,4.36c0,.512-.093,1.022-.276,1.513l-.222.603m-6.362-1.847h4.997c.009-.09.014-.179.014-.269,0-1.386-1.128-2.513-2.512-2.513s-2.514,1.127-2.514,2.513c0,.09.005.179.015.269Z" style="fill: #b01016;"/>
  <path d="m39.623,17.601c-.184,0-.369-.055-.531-.169l-2.619-1.848c-.417-.294-.514-.87-.221-1.287.295-.417.87-.517,1.287-.222l2.618,1.848c.417.294.517.87.223,1.287-.18.255-.466.391-.757.391" style="fill: #b01016;"/>
  <path d="m44.398,14.829c-.511,0-.924-.413-.924-.923v-3.388c0-.51.413-.924.924-.924s.924.414.924.924v3.388c0,.51-.414.923-.924.923" style="fill: #b01016;"/>
  <path d="m49.941,17.293c-.276,0-.55-.124-.731-.36-.312-.405-.237-.985.168-1.296l2.003-1.54c.403-.31.983-.235,1.294.17.311.403.236.984-.168,1.294l-2.001,1.541c-.169.128-.368.191-.565.191" style="fill: #b01016;"/>
  <path d="m21.3,38.85h-7.698c-.51,0-.924.414-.924.924s.414.924.924.924h7.698c.511,0,.924-.413.924-.924s-.413-.924-.924-.924" style="fill: #034ea2;"/>
  <path d="m63.645,39.929c0-.075-.011-.146-.027-.217v-1.785c0-2.391-2.732-3.341-4.045-3.797-.102-.036-.218-.076-.313-.112-.364-.739-.732-1.524-1.118-2.349-2.378-5.079-5.072-10.837-9.602-10.837-.056,0-.113.001-.139.003H14.498c-3.975,0-7.209,3.233-7.209,7.209v16.532c0,3.92,3.147,7.112,7.046,7.2.53,2.554,2.792,4.474,5.503,4.474s4.968-1.916,5.5-4.465h19.488c.532,2.549,2.792,4.465,5.5,4.465s4.969-1.916,5.501-4.465h.582c3.974,0,7.209-3.234,7.209-7.209v-4.432c.016-.069.027-.141.027-.215m-43.807,14.781c-2.253,0-4.08-1.827-4.08-4.08s1.827-4.08,4.08-4.08,4.08,1.826,4.08,4.08-1.826,4.08-4.08,4.08Zm30.488,0c-2.253,0-4.08-1.827-4.08-4.08s1.827-4.08,4.08-4.08,4.081,1.826,4.081,4.08-1.828,4.08-4.081,4.08Zm6.083-4.773h-.49c.016.178.027.357.027.539,0,.023-.004.045-.004.069-.046-3.065-2.541-5.536-5.616-5.536s-5.569,2.471-5.616,5.536c0-.024-.003-.046-.003-.069,0-.182.009-.361.026-.539h-19.303c.018.178.028.357.028.539,0,.023-.003.045-.003.069-.047-3.065-2.542-5.536-5.617-5.536s-5.571,2.471-5.617,5.536c0-.024-.004-.046-.004-.069,0-.187.01-.37.029-.552-2.839-.133-5.111-2.477-5.111-5.348v-16.532c0-2.957,2.407-5.361,5.363-5.361h33.933s.109-.003.109-.003c3.354,0,5.785,5.192,7.928,9.772.438.935.851,1.817,1.27,2.655.206.412.57.538,1.229.767.91.317,2.803.976,2.803,2.053v1.078H23.458c-.511,0-.925.413-.925.924s.414.923.925.923h38.312v3.724c0,2.956-2.405,5.361-5.361,5.361Z" style="fill: #034ea2;"/>
  <path d="m40.675,36.265h12.665c.808,0,1.465-.657,1.465-1.465v-.257l-5.513-9.155c-.144-.658-.731-1.153-1.432-1.153h-7.185c-.807,0-1.463.657-1.463,1.465v9.1c0,.808.656,1.465,1.463,1.465m.383-10.182h6.496l5.018,8.334h-11.514v-8.334Z" style="fill: #034ea2;"/>
  <path d="m19.838,49.014c-.892,0-1.617.723-1.617,1.616s.725,1.616,1.617,1.616,1.617-.724,1.617-1.616-.724-1.616-1.617-1.616" style="fill: #034ea2;"/>
  <path d="m50.326,49.014c-.893,0-1.616.723-1.616,1.616s.723,1.616,1.616,1.616,1.616-.724,1.616-1.616-.724-1.616-1.616-1.616" style="fill: #034ea2;"/>
  <polyline points="28.8 29.214 25.22 29.214 25.22 25.773 22.832 25.773 22.832 29.214 19.322 29.214 19.322 31.67 22.832 31.67 22.832 35.251 25.22 35.251 25.22 31.67 28.8 31.67 28.8 29.214" style="fill: #b01016;"/>
</svg>