<?xml version="1.0" encoding="UTF-8"?>
<svg id="_Слой_1" data-name="Слой 1" xmlns="http://www.w3.org/2000/svg" viewBox="0 0 72.711 72.711">
  <path d="m72.7,36.8c0,19.946-16.169,36.115-36.116,36.115S.469,56.746.469,36.8,16.639.685,36.584.685s36.116,16.169,36.116,36.115" style="fill: #fff;"/>
  <path d="m72.7,36.8c0,19.946-16.169,36.115-36.116,36.115S.469,56.746.469,36.8,16.639.685,36.584.685s36.116,16.169,36.116,36.115Z" style="fill: none; stroke: #034ea2; stroke-miterlimit: 10; stroke-width: .5px;"/>
  <path d="m38.665,47.865c-1.136,1.566-2.464,2.962-3.771,4.15h12.876v-4.15h-9.105" style="fill: #034ea2;"/>
  <path d="m43.152,37.077c-.307,1.316-.689,2.706-1.168,4.149h5.786v-4.149h-4.618" style="fill: #034ea2;"/>
  <path d="m44.49,26.703l.008.381c.002.137.019,1.554-.204,3.768h3.476v-4.149h-3.28" style="fill: #034ea2;"/>
  <polyline points="35.599 34.553 29.928 34.553 29.928 28.916 25.226 28.916 25.226 34.553 19.692 34.553 19.692 39.048 25.226 39.048 25.226 44.684 29.928 44.684 29.928 39.048 35.599 39.048 35.599 34.553" style="fill: #6c8cc7;"/>
  <path d="m27.082,57.089l-.888-.794c-.271-.243-6.705-6.017-10.107-11.261-4.277-6.594-4.148-17.748-4.141-18.22l.025-1.465,1.458-.158c.049-.005,5.045-.551,8.212-1.343,2.918-.73,5.127-2.551,5.15-2.57l.881-.733.999.563c.029.018,3.131,1.762,6.437,3.086,3.125,1.249,6.68,1.264,6.716,1.264h1.625l.034,1.626c.007.337.125,8.364-3.586,17.27-2.951,7.083-11.419,11.944-11.779,12.148l-1.036.587m-11.791-28.778c.111,3.096.684,10.451,3.582,14.916,2.437,3.758,6.753,7.991,8.625,9.753,2.204-1.438,7.374-5.196,9.335-9.903,2.525-6.062,3.139-11.755,3.286-14.391-1.562-.142-3.969-.501-6.242-1.411-2.412-.964-4.666-2.109-5.89-2.759-1.109.757-3.119,1.946-5.54,2.552-2.295.574-5.352,1.012-7.156,1.243Z" style="fill: #6c8cc7;"/>
  <path d="m50.903,15.918h-26.737c-1.852,0-3.356,1.496-3.356,3.333v5.073c.532-.107,1.049-.22,1.523-.338.237-.059.462-.135.688-.207v-4.528c0-.617.514-1.12,1.145-1.12h26.737c.632,0,1.146.503,1.146,1.12v37.864c0,.618-.514,1.12-1.146,1.12h-26.737c-.631,0-1.145-.502-1.145-1.12v-4.421c-.707-.727-1.46-1.531-2.211-2.375v6.796c0,1.838,1.504,3.333,3.356,3.333h26.737c1.852,0,3.359-1.495,3.359-3.333V19.251c0-1.837-1.507-3.333-3.359-3.333" style="fill: #034ea2;"/>
  <path d="m46.341,20.248s-.184-.553-.46-1.66c-.044-.171-.088-.32-.135-.457h-16.654c-.295.809-.547,1.933-.547,1.933l17.796.184" style="fill: #6c8cc7;"/>
  <path d="m35.591,15.918c.17-.895.956-1.572,1.899-1.572s1.729.677,1.9,1.572h1.291c-.183-1.608-1.534-2.862-3.191-2.862s-3.007,1.254-3.189,2.862h1.29" style="fill: #6c8cc7;"/>
  <path d="m36.355,72.711c-9.711,0-18.84-3.782-25.707-10.649C3.781,55.197,0,46.066,0,36.356S3.781,17.515,10.648,10.649C17.515,3.782,26.644,0,36.355,0s18.841,3.782,25.707,10.649c6.868,6.866,10.649,15.996,10.649,25.707s-3.781,18.841-10.649,25.706c-6.866,6.867-15.996,10.649-25.707,10.649m0-68.284c-8.529,0-16.547,3.32-22.578,9.351-6.03,6.031-9.351,14.049-9.351,22.578s3.321,16.546,9.351,22.577c6.031,6.031,14.049,9.352,22.578,9.352s16.548-3.321,22.579-9.352c6.03-6.031,9.35-14.049,9.35-22.577s-3.32-16.547-9.35-22.578c-6.031-6.031-14.049-9.351-22.579-9.351Z" style="fill: #b01016;"/>
  <polyline points="13.412 62.115 10.282 58.986 59.402 9.864 62.532 12.993 13.412 62.115" style="fill: #b01016;"/>
</svg>