<?xml version="1.0" encoding="UTF-8"?>
<svg id="_Слой_1" data-name="Слой 1" xmlns="http://www.w3.org/2000/svg" viewBox="0 0 72.731 72.73">
  <path d="m72.481,36.365c0,19.946-16.169,36.115-36.116,36.115S.25,56.311.25,36.365,16.42.25,36.365.25s36.116,16.169,36.116,36.115" style="fill: #fff;"/>
  <path d="m72.481,36.365c0,19.946-16.169,36.115-36.116,36.115S.25,56.311.25,36.365,16.42.25,36.365.25s36.116,16.169,36.116,36.115Z" style="fill: none; stroke: #034ea2; stroke-miterlimit: 10; stroke-width: .5px;"/>
  <polyline points="41.761 18.628 38.177 18.628 38.177 15.183 35.787 15.183 35.787 18.628 32.273 18.628 32.273 21.086 35.787 21.086 35.787 24.671 38.177 24.671 38.177 21.086 41.761 21.086 41.761 18.628" style="fill: #b01016;"/>
  <path d="m46.851,9.497c-4.912-5.016-13.377-5.016-18.392-.94-5.016,4.075-6.374,11.599-4.076,16.511,2.299,4.911,12.75,15.779,12.75,15.779,0,0,8.463-9.823,11.599-14.63,3.135-4.807,3.03-11.704-1.881-16.72m-9.774,17.452c-3.866,0-7.001-3.135-7.001-7.002s3.135-7.001,7.001-7.001,7.001,3.134,7.001,7.001-3.134,7.002-7.001,7.002Z" style="fill: #034ea2;"/>
  <path d="m68.529,37.053c-.084-.612-.429-1.476-1.598-2.113-1.046-.571-10.608-4.951-16.618-7.694-.563.834-1.242,1.774-1.986,2.769,6.528,2.979,14.007,6.411,16.339,7.531l-11.276,8.846-.039.016.297-.334-10.24-9.092-1.111,1.251,9.796,8.697-13.74,5.698c-.115.054-.686.328-1.386.766l-18.721-23.063,7.069-.216c-.874-1.171-1.641-2.283-2.241-3.277l-5.213.16c-.609-.06-1.884.003-3.787,1.069-1.859,1.043-6.397,4.207-7.107,4.705-.313.176-.766.528-1.049,1.168-.342.778-.311,1.685.093,2.697.413,1.03,7.051,10.841,19.735,29.161.537.777,1.381,1.204,2.375,1.204.671,0,1.209-.198,1.357-.258l.407-.165.273-.342c.06-.077,6.093-7.662,7.13-8.847.684-.783,2.026-1.518,2.415-1.703l15.391-6.381,12.431-9.753.133-.117c.177-.171,1.047-1.09.871-2.383m-33.758,18.134c-.896,1.024-5.043,6.22-6.624,8.206-11.042-15.954-18.505-26.941-19.03-27.997-.006-.013-.01-.025-.015-.037,1.121-.781,5.037-3.494,6.607-4.375.242-.134.456-.239.65-.325l19.254,23.721c-.298.251-.588.516-.842.807Z" style="fill: #034ea2;"/>
</svg>