<?xml version="1.0" encoding="UTF-8"?>
<svg id="_Слой_1" data-name="Слой 1" xmlns="http://www.w3.org/2000/svg" viewBox="0 0 72.731 72.73">
  <path d="m72.481,36.365c0,19.946-16.169,36.115-36.116,36.115S.25,56.311.25,36.365,16.42.25,36.365.25s36.116,16.169,36.116,36.115" style="fill: #fff;"/>
  <path d="m72.481,36.365c0,19.946-16.169,36.115-36.116,36.115S.25,56.311.25,36.365,16.42.25,36.365.25s36.116,16.169,36.116,36.115Z" style="fill: none; stroke: #034ea2; stroke-miterlimit: 10; stroke-width: .5px;"/>
  <path d="m36.907,41.177c-.107-.213-.638-.638-1.063-1.063-.424-.425-.319-1.381-.319-1.381,0,0,.106-15.302.106-16.791s-.318-2.23-1.275-2.55c-.956-.319-2.32-.743-4.232-1.488-1.913-.742-2.55-2.551-4.463-3.081-1.913-.531-3.295-.638-5.634,0-2.336.638-4.355,3.294-6.161,3.826-1.807.531-2.283.579-2.959,1.063-.743.531-.85,2.442-.85,2.442v16.154s0,.956-.636,1.806c-.639.85-.957,1.381-.957,2.02,0,.743,1.487,1.169,1.487,1.169,0,0,23.661.211,25.362-.107,1.7-.319,2.275-.658,1.594-2.019m-14.465-13.202c-2.759,0-4.994-2.236-4.994-4.993s2.235-4.996,4.994-4.996,4.994,2.236,4.994,4.996-2.235,4.993-4.994,4.993Z" style="fill: #034ea2;"/>
  <polyline points="25.743 22.076 23.249 22.076 23.249 19.681 21.586 19.681 21.586 22.076 19.141 22.076 19.141 23.787 21.586 23.787 21.586 26.28 23.249 26.28 23.249 23.787 25.743 23.787 25.743 22.076" style="fill: #b01016;"/>
  <path d="m59.085,56.411c-.125-.249-.751-.749-1.252-1.251-.501-.501-.376-1.627-.376-1.627,0,0,.125-18.03.125-19.785s-.375-2.629-1.502-3.005c-1.126-.375-2.735-.876-4.989-1.753-2.253-.874-3.004-3.004-5.256-3.629-2.255-.627-3.883-.753-6.639,0-2.753.749-5.132,3.88-7.262,4.506-2.128.626-2.688.684-3.484,1.252-.876.628-1.002,2.879-1.002,2.879v19.033s0,1.127-.751,2.129c-.751,1.002-1.126,1.627-1.126,2.38,0,.876,1.753,1.377,1.753,1.377,0,0,27.879.249,29.883-.126s2.679-.775,1.878-2.38m-17.044-15.555c-3.25,0-5.884-2.633-5.884-5.883s2.634-5.886,5.884-5.886,5.884,2.635,5.884,5.886-2.633,5.883-5.884,5.883Z" style="fill: #fff;"/>
  <path d="m44.563,59.773h-.002c-8.075,0-17.154-.08-17.245-.081l-.205-.03c-.388-.109-2.315-.732-2.315-2.122,0-1.052.555-1.877,1.28-2.845.577-.77.597-1.659.597-1.669v-19.028c.025-.481.205-2.707,1.326-3.51.728-.519,1.288-.677,2.515-1.021.335-.094.73-.205,1.203-.343.838-.247,1.822-1.028,2.862-1.857,1.304-1.036,2.779-2.21,4.414-2.655,1.362-.372,2.497-.546,3.569-.546,1.061,0,2.102.164,3.48.547,1.364.379,2.224,1.206,3.057,2.005.69.661,1.341,1.287,2.274,1.649,1.869.728,3.309,1.201,4.362,1.545l.589.195c1.792.598,2.033,2.227,2.033,3.741,0,1.737-.124,19.609-.124,19.79l-.005.08c-.037.352.022.864.154.994.168.17.354.34.528.5.463.424.73.676.868.951.284.568.617,1.408.246,2.154-.422.85-1.507,1.117-2.675,1.337-.291.054-1.178.219-12.786.219m-17.12-1.631c1.07.009,9.537.08,17.118.08,9.978,0,12.116-.121,12.502-.194,1.301-.244,1.532-.431,1.571-.502,0,0,.053-.176-.244-.767-.045-.061-.324-.318-.529-.505-.188-.174-.392-.359-.577-.546-.692-.692-.634-1.888-.603-2.217.007-.915.124-18.05.124-19.743,0-1.802-.421-2.086-.971-2.27l-.583-.191c-1.069-.352-2.534-.832-4.441-1.575-1.22-.473-2.052-1.271-2.786-1.976-.757-.727-1.411-1.354-2.397-1.628-1.237-.343-2.153-.49-3.065-.49-.93,0-1.935.156-3.162.49-1.326.362-2.611,1.384-3.855,2.373-1.162.925-2.261,1.798-3.391,2.13-.479.141-.88.253-1.222.35-1.14.319-1.524.427-2.032.789-.334.24-.627,1.401-.678,2.293v18.988c0,.058-.008,1.398-.905,2.595-.744.992-.971,1.44-.971,1.914.065.14.593.438,1.097.602Zm14.598-16.509c-3.672,0-6.659-2.989-6.659-6.66s2.987-6.662,6.659-6.662,6.66,2.989,6.66,6.662-2.987,6.66-6.66,6.66Zm0-11.771c-2.818,0-5.109,2.292-5.109,5.111s2.291,5.108,5.109,5.108,5.109-2.291,5.109-5.108-2.291-5.111-5.109-5.111Z" style="fill: #034ea2;"/>
  <polyline points="45.93 33.906 42.992 33.906 42.992 31.083 41.032 31.083 41.032 33.906 38.152 33.906 38.152 35.922 41.032 35.922 41.032 38.86 42.992 38.86 42.992 35.922 45.93 35.922 45.93 33.906" style="fill: #b01016;"/>
  <rect x="38.125" y="47.145" width="3.396" height="10.143" style="fill: #b01016;"/>
  <rect x="43.383" y="47.145" width="3.398" height="10.143" style="fill: #b01016;"/>
  <rect x="18.862" y="32.264" width="2.922" height="8.725" style="fill: #fff;"/>
  <rect x="23.386" y="32.264" width="2.922" height="8.725" style="fill: #fff;"/>
  <path d="m58.687,29.767c.517-1.66.767-3.44.692-5.283-.349-8.485-7.371-15.09-15.686-14.747-8.313.341-14.125,6.304-13.776,14.791.121,2.936.43,2.468.347.434-.243-5.917,5.657-10.87,11.741-11.119,6.084-.251,11.211,4.343,11.455,10.258.054,1.349-.152,2.647-.573,3.855l-2.156-.674,2.489,8.92,7.725-5.729-2.258-.706" style="fill: #b01016;"/>
  <rect x="30.172" y="39.734" width="3.839" height="3.415" style="fill: #b01016;"/>
  <rect x="30.172" y="45.101" width="3.839" height="3.416" style="fill: #b01016;"/>
  <rect x="30.172" y="50.224" width="3.839" height="3.415" style="fill: #b01016;"/>
  <rect x="12.75" y="26.308" width="3.34" height="2.97" style="fill: #fff;"/>
  <rect x="12.75" y="30.977" width="3.34" height="2.971" style="fill: #fff;"/>
  <rect x="12.75" y="35.433" width="3.34" height="2.969" style="fill: #fff;"/>
  <rect x="50.049" y="39.734" width="3.838" height="3.415" style="fill: #b01016;"/>
  <rect x="50.049" y="45.101" width="3.838" height="3.416" style="fill: #b01016;"/>
  <rect x="50.049" y="50.224" width="3.838" height="3.415" style="fill: #b01016;"/>
</svg>