<?xml version="1.0" encoding="UTF-8"?>
<svg id="_Слой_1" data-name="Слой 1" xmlns="http://www.w3.org/2000/svg" viewBox="0 0 72.731 72.73">
  <path d="m72.481,36.365c0,19.946-16.169,36.115-36.116,36.115S.25,56.311.25,36.365,16.42.25,36.365.25s36.116,16.169,36.116,36.115" style="fill: #fff;"/>
  <path d="m72.481,36.365c0,19.946-16.169,36.115-36.116,36.115S.25,56.311.25,36.365,16.42.25,36.365.25s36.116,16.169,36.116,36.115Z" style="fill: none; stroke: #034ea2; stroke-miterlimit: 10; stroke-width: .5px;"/>
  <path d="m16.814,28.243c-1.32,0-2.394-1.074-2.394-2.394v-7.24c0-1.32,1.074-2.394,2.394-2.394s2.394,1.074,2.394,2.394v7.24c0,1.32-1.075,2.394-2.394,2.394m0-11.324c-.932,0-1.691.758-1.691,1.69v7.24c0,.932.759,1.69,1.691,1.69s1.691-.758,1.691-1.69v-7.24c0-.932-.759-1.69-1.691-1.69Z" style="fill: #b01016;"/>
  <path d="m20.518,44.878c-.323,0-1.639-.081-2.615-1.3-1.228-1.535-1.27-4.723-1.27-4.857v-10.028h.352v10.027c0,.029.041,3.198,1.192,4.638.988,1.235,2.389,1.166,2.404,1.166h2.648v.352h-2.638c-.006,0-.032.002-.073.002" style="fill: #b01016;"/>
  <path d="m12.412,57.716c-.194,0-.352-.159-.352-.352V13.39c0-.083.012-.841.429-1.362.391-.488,2.19-.389,3.641-.221.282.009.804.168,1.081.723.286.569.1,3.381.037,4.229-.015.193-.182.339-.376.325-.196-.016-.34-.184-.326-.379.122-1.622.171-3.561.036-3.862-.161-.324-.473-.331-.476-.331l-.042-.003c-1.263-.149-2.79-.193-3.048-.021-.201.257-.252.74-.253.903v43.973c0,.193-.157.352-.351.352" style="fill: #b01016;"/>
  <path d="m27.978,30.54c0,1.797-1.457,3.255-3.254,3.255s-3.254-1.458-3.254-3.255,1.457-3.254,3.254-3.254,3.254,1.457,3.254,3.254" style="fill: #034ea2;"/>
  <path d="m20.063,51.34c0-.462-.374-.836-.836-.836s-.835.374-.835.836v5.013c0,.46.374.835.835.835s.836-.375.836-.835v-5.013" style="fill: #034ea2;"/>
  <path d="m61.896,48.306H19.389c-.55,0-.997.447-.997.997v3.282c0,.551.447.997.997.997h41.833v2.771c0,.46.374.835.836.835s.835-.375.835-.835v-7.05c0-.55-.446-.997-.997-.997" style="fill: #034ea2;"/>
  <path d="m51.988,39.453c0-.552-.446-.998-.997-.998h-9.967c-.551,0-.997.446-.997.998v3.546c0,.04.007.078.012.117h-4.849v14.16h16.798v-14.16h-.012c.005-.039.012-.077.012-.117v-3.546" style="fill: #034ea2;"/>
  <path d="m60.079,45.226c-.247,0-24.816,0-27.666-.086-2.839-.086-5.228-1.349-6.516-2.501-1.012-.906-3.565-6.207-5.055-9.682-.267-.625-.991-.914-1.617-.647-.624.269-.914.993-.645,1.618.635,1.48,3.891,8.95,5.676,10.546,2.055,1.84,5.154,3.039,8.083,3.126,2.887.089,26.726.09,27.74.09.68,0,1.231-.551,1.231-1.231s-.551-1.233-1.231-1.233" style="fill: #034ea2;"/>
  <path d="m27.099,40.302c1.793,2.138,6.128,2.815,7.915,3.008v.209c8.002.038,21.323.038,22.076.038.678,0,1.23-.552,1.23-1.232s-.552-1.231-1.23-1.231c-.137,0-7.607,0-14.788-.015l.099-2.624s-1.847,0-3.518.616c-1.748.644-2.549.527-3.869.352-1.319-.176-2.111-.528-2.111-.528,0,0,2.111.176,4.573-.088.471-.05,1.32-.352,1.32-1.054,0-.565-.44-.792-1.496-.705-.748.062-1.847.352-5.1-.175-2.913-.473-3.342-2.551-5.365-2.286-2.023.262-1.847,1.933-1.759,2.461.088.528.501,1.439,2.023,3.254" style="fill: #034ea2;"/>
</svg>