<?xml version="1.0" encoding="UTF-8"?>
<svg id="_Слой_1" data-name="Слой 1" xmlns="http://www.w3.org/2000/svg" viewBox="0 0 72.731 72.73">
  <path d="m72.481,36.365c0,19.946-16.169,36.115-36.116,36.115S.25,56.311.25,36.365,16.42.25,36.365.25s36.116,16.169,36.116,36.115" style="fill: #fff;"/>
  <path d="m72.481,36.365c0,19.946-16.169,36.115-36.116,36.115S.25,56.311.25,36.365,16.42.25,36.365.25s36.116,16.169,36.116,36.115Z" style="fill: none; stroke: #034ea2; stroke-miterlimit: 10; stroke-width: .5px;"/>
  <path d="m25.295,24.166h-14.683c-.369,0-.667-.299-.667-.668s.298-.668.667-.668h14.683c.367,0,.667.299.667.668s-.3.668-.667.668" style="fill: #034ea2;"/>
  <path d="m47.429,13.822h-22.691c-.367,0-.667-.299-.667-.668s.3-.668.667-.668h22.691c.368,0,.667.299.667.668s-.299.668-.667.668" style="fill: #034ea2;"/>
  <path d="m61.777,24.276h-14.793c-.369,0-.667-.299-.667-.668s.298-.667.667-.667h14.793c.369,0,.667.299.667.667s-.298.668-.667.668" style="fill: #034ea2;"/>
  <path d="m64.335,54.529c0,.554-.449,1.003-1.001,1.003H9.055c-.552,0-1.001-.449-1.001-1.003s.449-1,1.001-1h54.279c.552,0,1.001.448,1.001,1" style="fill: #034ea2;"/>
  <rect x="11.058" y="24.61" width="14.014" height="28.475" style="fill: #034ea2;"/>
  <rect x="47.429" y="24.61" width="14.013" height="28.475" style="fill: #034ea2;"/>
  <rect x="25.629" y="14.377" width="21.465" height="38.708" style="fill: #034ea2;"/>
  <line x1="12.393" y1="41.849" x2="23.737" y2="41.849" style="fill: none; stroke: #26bdbe; stroke-miterlimit: 10;"/>
  <polyline points="23.182 27.391 19.511 27.391 19.511 32.507 16.73 32.507 16.73 27.391 13.06 27.391 13.06 32.507 12.393 32.507 12.393 33.175 23.737 33.175 23.737 32.507 23.182 32.507 23.182 27.391" style="fill: #fff;"/>
  <rect x="13.06" y="36.066" width="3.67" height="5.45" style="fill: #fff;"/>
  <rect x="19.511" y="36.066" width="3.671" height="5.45" style="fill: #fff;"/>
  <polyline points="23.182 45.187 19.511 45.187 19.511 50.304 16.73 50.304 16.73 45.187 13.06 45.187 13.06 50.304 12.393 50.304 12.393 50.971 23.737 50.971 23.737 50.304 23.182 50.304 23.182 45.187" style="fill: #fff;"/>
  <polyline points="59.218 36.066 55.549 36.066 55.549 41.516 52.767 41.516 52.767 36.066 49.097 36.066 49.097 41.516 48.429 41.516 48.429 42.184 59.774 42.184 59.774 41.516 59.218 41.516 59.218 36.066" style="fill: #fff;"/>
  <polyline points="59.218 45.187 55.549 45.187 55.549 50.304 52.767 50.304 52.767 45.187 49.097 45.187 49.097 50.304 48.429 50.304 48.429 50.971 59.774 50.971 59.774 50.304 59.218 50.304 59.218 45.187" style="fill: #fff;"/>
  <polyline points="59.218 32.507 59.218 27.391 55.549 27.391 55.549 32.507 52.767 32.507 52.767 27.391 49.097 27.391 49.097 32.507 48.429 32.507 48.429 33.175 59.774 33.175 59.774 32.507 59.218 32.507" style="fill: #fff;"/>
  <rect x="32.747" y="44.631" width="3.225" height="8.454" style="fill: #fff;"/>
  <rect x="36.64" y="44.631" width="3.225" height="8.454" style="fill: #fff;"/>
  <polyline points="44.425 27.391 40.756 27.391 40.756 32.507 38.086 32.507 38.086 27.391 34.415 27.391 34.415 32.507 31.634 32.507 31.634 27.391 27.964 27.391 27.964 32.507 27.297 32.507 27.297 33.175 45.315 33.175 45.315 32.507 44.425 32.507 44.425 27.391" style="fill: #fff;"/>
  <polyline points="44.425 36.066 40.756 36.066 40.756 41.516 38.086 41.516 38.086 36.066 34.415 36.066 34.415 41.516 31.634 41.516 31.634 36.066 27.964 36.066 27.964 41.516 27.297 41.516 27.297 42.184 45.315 42.184 45.315 41.516 44.425 41.516 44.425 36.066" style="fill: #fff;"/>
  <polyline points="40.356 19.316 37.2 19.316 37.2 16.283 35.093 16.283 35.093 19.316 32.001 19.316 32.001 21.48 35.093 21.48 35.093 24.638 37.2 24.638 37.2 21.48 40.356 21.48 40.356 19.316" style="fill: #b01016;"/>
</svg>