<?xml version="1.0" encoding="UTF-8"?>
<svg id="_Слой_1" data-name="Слой 1" xmlns="http://www.w3.org/2000/svg" viewBox="0 0 72.731 72.73">
  <path d="m72.481,36.365c0,19.946-16.169,36.115-36.116,36.115S.25,56.311.25,36.365,16.42.25,36.365.25s36.116,16.169,36.116,36.115" style="fill: #fff;"/>
  <path d="m72.481,36.365c0,19.946-16.169,36.115-36.116,36.115S.25,56.311.25,36.365,16.42.25,36.365.25s36.116,16.169,36.116,36.115Z" style="fill: none; stroke: #034ea2; stroke-miterlimit: 10; stroke-width: .5px;"/>
  <polyline points="49.801 19.603 39.89 19.603 39.89 10.079 33.275 10.079 33.275 19.603 23.562 19.603 23.562 26.404 33.275 26.404 33.275 36.315 39.89 36.315 39.89 26.404 49.801 26.404 49.801 19.603" style="fill: #b01016;"/>
  <path d="m25.828,70.572l-1.43-.169c.223-1.875,1.035-10.096.568-11.188-.292-.682-2.89-3.235-4.977-5.283-2.718-2.669-5.526-5.43-6.381-6.872-1.091-1.849-4.658-8.093-4.658-10.805,0-2.162,1.422-13.171,1.971-14.544.311-.778.926-1.234,1.622-1.192.795.036,1.492.669,1.775,1.612.387,1.288.877,6.771.508,10.593-.251,2.595.05,3.348,1.358,4.875-.391-.761-.529-1.392-.362-1.92.699-2.214,1.686-2.418,2.654-2.32.067.009.131.016.192.016.645,0,1.019.565,1.701,1.592.659.991,1.655,2.493,3.237,4.007,1.239,1.189,2.365,2.105,3.454,2.992,1.416,1.153,2.755,2.241,4.139,3.763,2.464,2.711,4.157,8.271,4.026,11.433-.118,2.822-.148,15.235-.147,15.285l-1.315-.342c-.005-.212-.096-12.132.023-15.003.117-2.825-1.453-7.985-3.653-10.405-1.311-1.442-2.609-2.498-3.981-3.614-1.111-.904-2.261-1.839-3.543-3.068-1.696-1.627-2.745-3.208-3.439-4.251-.247-.374-.526-.791-.677-.956-.056-.004-.112-.009-.171-.016-.38-.042-.687-.074-1.127,1.32-.229.757,2.46,3.88,3.906,5.558,2.528,2.932,3.832,4.515,3.569,5.619-.087.363-.332.643-.689.789-.937.393-1.835-.709-4.528-4.239-.975-1.279-1.983-2.599-2.886-3.631l-.709-.8c-1.993-2.238-2.819-3.164-2.465-6.822.361-3.728-.133-8.969-.454-10.041-.129-.428-.37-.582-.461-.586-.044,0-.143.096-.22.286-.391.978-1.869,11.609-1.869,14.01,0,1.746,2.241,6.317,4.46,10.071.758,1.283,3.621,4.097,6.149,6.577,3.03,2.978,4.906,4.848,5.291,5.744.773,1.804-.398,11.391-.461,11.925" style="fill: #034ea2;"/>
  <path d="m46.773,70.616c-.062-.534-.983-10.165-.211-11.969.385-.896,2.261-2.766,5.29-5.744,2.529-2.48,5.393-5.294,6.15-6.577,2.219-3.754,4.46-8.325,4.46-10.071,0-2.401-1.479-13.032-1.87-14.01-.075-.19-.173-.285-.219-.286-.09.004-.332.158-.461.586-.322,1.072-.814,6.313-.453,10.041.354,3.658-.472,4.584-2.467,6.822l-.707.8c-.903,1.032-1.912,2.352-2.886,3.631-2.691,3.526-3.589,4.63-4.529,4.239-.358-.146-.602-.426-.688-.789-.264-1.104,1.041-2.687,3.569-5.619,1.444-1.678,4.134-4.801,3.905-5.558-.441-1.394-.748-1.362-1.127-1.32-.059.007-.115.012-.171.016-.152.165-.429.582-.676.956-.695,1.043-1.745,2.624-3.441,4.251-1.281,1.229-2.432,2.164-3.541,3.068-1.374,1.116-2.67,2.172-3.983,3.614-2.2,2.42-3.77,7.58-3.653,10.405.12,2.871.143,15.258.139,15.47l-1.441-.033c.001-.05-.019-12.555-.135-15.377-.133-3.162,1.562-8.722,4.025-11.433,1.385-1.522,2.722-2.61,4.138-3.763,1.09-.887,2.215-1.803,3.455-2.992,1.581-1.514,2.578-3.016,3.236-4.007.682-1.027,1.057-1.592,1.701-1.592.062,0,.125-.007.193-.016.964-.098,1.956.106,2.653,2.32.169.528.028,1.159-.361,1.92,1.308-1.527,1.61-2.28,1.358-4.875-.37-3.822.121-9.305.508-10.593.283-.943.98-1.576,1.774-1.612.703-.042,1.313.414,1.622,1.192.55,1.373,1.972,12.382,1.972,14.544,0,2.712-3.566,8.956-4.659,10.805-.854,1.442-3.663,4.203-6.38,6.872-2.087,2.048-4.684,4.601-4.978,5.283-.468,1.094.096,9.357.319,11.232l-1.43.169" style="fill: #034ea2;"/>
</svg>